<?xml version="1.0" encoding="utf-8"?>
<!-- Generator: Adobe Illustrator 27.5.0, SVG Export Plug-In . SVG Version: 6.00 Build 0)  -->
<svg version="1.1" id="Capa_1" xmlns="http://www.w3.org/2000/svg" xmlns:xlink="http://www.w3.org/1999/xlink" x="0px" y="0px"
	 viewBox="0 0 2122 2122" style="enable-background:new 0 0 2122 2122;" xml:space="preserve">
<g>
	<path style="fill:#6768AD;" d="M1204.575,1807.302c-20.679,7.352-42.005,13.111-64.012,16.999
		c-65.44,11.566-131.525,7.059-195.552-9.822c-32.239-8.502-62.278-21.646-91.766-37.052l-0.307-0.161
		c6.982,59.902,31.279,119.171,77.88,154.304c23.101,17.462,50.141,28.092,77.881,34.475c34.672-12.619,67.849-28.735,98.234-49.69
		C1147.262,1888.495,1182.235,1851.185,1204.575,1807.302z"/>
	<path style="fill:#484D94;" d="M1204.575,1807.302c-22.341,43.883-57.313,81.194-97.642,109.052
		c-30.385,20.955-63.561,37.071-98.234,49.69c3.043,0.702,6.085,1.349,9.128,1.949c58.921,11.674,121.683,6.086,176.163-21.656
		c54.531-27.688,99.932-78.577,118.341-140.438c5.97-20.078,8.916-40.658,9.444-61.345c-3.659,2.665-7.303,5.262-10.896,7.737
		C1277.597,1775.219,1242.166,1793.937,1204.575,1807.302z"/>
	<path style="fill:#F59A24;" d="M1256.044,854.299c20.945-29.676,28.268-80.682-17.391-91.712
		c-30.268-7.313-61.632,9.744-78.183,34.568c-20.955,31.425-24.512,71.342-28.195,107.878c-0.721,7.142-1.374,14.295-2.031,21.442
		C1179.682,916.029,1228.354,893.529,1256.044,854.299z"/>
	<path style="fill:#F59A24;" d="M970.203,789.12c-16.512-25.199-64.068-51.8-86.453-19.25c-17.055,24.799-7.16,60.833,6.533,84.477
		c22.909,39.562,63.342,61.7,106.753,72.024c-1.41-16.175-2.828-32.351-4.434-48.506
		C989.616,847.809,987.263,815.152,970.203,789.12z"/>
	<path style="fill:#F59A24;" d="M916.152,1338.094c27.632-44.463,55.574-89.018,89.661-128.769c1.949-2.276,3.963-4.488,5.949-6.729
		c-1.245-65.768-4.056-131.503-8.504-197.154c-1.432-21.145-3.033-42.276-4.794-63.396
		c-60.599-13.418-119.583-51.328-135.281-114.713c-13.252-53.496,21.352-103.952,78.582-80.356
		c68.238,28.137,65.057,118.952,70.377,179.917c0.076,0.882,0.142,1.764,0.217,2.646c15.812,2.748,31.791,4.063,47.259,4.165
		c17.27,0.112,35.859-1.232,54.653-4.234c2.339-32.769,5.756-65.788,14.5-96.818c14.765-52.409,69.88-111.06,129.047-78.597
		c60.519,33.198,19.291,110.552-20.772,140.857c-31.264,23.649-68.892,39.113-108.185,47.137
		c-2.271,26.543-4.149,53.121-5.584,79.722c-1.379,25.525-2.319,51.06-2.918,76.599c27.97-25.247,55.512-50.899,80.255-79.23
		c85.507-97.91,134.511-227.001,135.476-356.974c0.826-105.432-29.806-208.516-79.83-300.73
		c-32.312-59.6-72.517-115.454-118.102-166.041c-86.489-10.319-175.084-1.774-256.353,27.23
		C632.214,311.674,477.831,579.61,532.326,839.274c33.973,161.793,151.695,303.6,270.589,413.184
		c46.083,42.479,62.368,76.36,48.363,138.479c-1.949,8.634-4.801,19.133-7.398,30.343c8.47,0.468,16.645,2.597,24.589,5.749
		C880.569,1395.975,898.459,1366.557,916.152,1338.094z"/>
	<path style="fill:#F59A24;" d="M1105.085,1112.116c0.828-44.765,2.789-89.505,5.973-134.168
		c0.777-10.909,1.444-21.988,2.161-33.125c-33.376,5.106-67.493,5.032-99.571,0.092l-0.022-0.005
		c6.655,80.453,10.892,161.072,12.736,241.744C1051.221,1160.496,1078.142,1136.297,1105.085,1112.116z"/>
	<path style="fill:#E2831C;" d="M1011.763,1202.596c-1.986,2.241-4,4.453-5.949,6.729c-34.087,39.751-62.029,84.307-89.661,128.769
		c-17.693,28.463-35.583,57.881-47.683,88.935c22.845,9.062,43.79,26.733,64.353,38.855c2.219,1.072,4.441,2.144,6.687,3.162
		c5.686,2.621,11.43,5.091,17.238,7.43c11.608,4.663,23.43,8.76,35.44,12.268c4.926,1.437,9.92,2.626,14.87,3.961
		C1011.984,1396.077,1013.594,1299.307,1011.763,1202.596z"/>
	<path style="fill:#E2831C;" d="M1451.445,333.331c-85.958-76.96-197.788-124.204-313.286-137.934
		c45.586,50.587,85.79,106.441,118.102,166.041c50.024,92.214,80.655,195.298,79.83,300.73
		c-0.965,129.973-49.969,259.064-135.476,356.974c-24.743,28.332-52.285,53.983-80.255,79.23
		c-3.079,131.679,4.136,263.459,21.149,394.114c3.939-0.877,7.888-1.71,11.798-2.714c5.691-1.462,11.306-3.158,16.95-4.789
		c0.901-0.258,1.627-0.463,2.237-0.634c0.809-0.346,1.983-0.823,3.707-1.505c22.012-8.667,43.452-17.622,63.995-29.486
		c3.983-2.299,7.92-4.682,11.812-7.133c-0.107-0.063,7.516-5.286,9.087-6.392c9.649-6.802,19.271-13.598,28.811-20.555
		c8.268-6.032,18.896-13.106,30.378-18.724c-1.403-4.843-3.043-9.783-4.994-14.84c-34.921-90.621,36.368-129.091,95.632-182.246
		c27.839-24.999,53.401-52.604,76.375-82.236c88.738-114.484,139.636-259.649,139.961-403.863
		c0.321-138.124-59.048-269.939-157.615-366.952C1463.691,344.565,1457.65,338.861,1451.445,333.331z"/>
	<path style="fill:#E2831C;" d="M1104.629,1148.565c0.051-12.151,0.232-24.298,0.456-36.448
		c-26.943,24.18-53.864,48.38-78.723,74.538c2.353,102.967,0.824,206.012-4.492,308.891c10.709,1.695,21.467,3.02,32.285,3.79
		c12.536,0.892,24.921,0.546,37.459,0.765l0.684-0.025c2.032-0.166,4.064-0.322,6.09-0.536c5.854-0.585,11.688-1.316,17.508-2.183
		c3.693-0.551,7.352-1.277,11.026-1.939C1111.816,1380.423,1104.149,1264.56,1104.629,1148.565z"/>
	<path style="fill:#F2B579;" d="M981,394.607c8.134-30.646,4.305-66.572-18.107-89.008c-35.596-35.64-97.021-21.038-139.286,6.363
		c-104.721,67.893-159.208,191.405-189.832,312.394c-12.519,49.461-22.066,100.219-20.044,151.201
		c2.361,59.493,29.829,130.212,99.739,130.202c45.26-0.005,62.614-28.068,72.926-67.766
		c33.932-130.606,77.337-244.925,151.106-359.254C954.695,452.093,972.866,425.258,981,394.607z"/>
	<path style="fill:#F2B579;" d="M838.701,1093.173c-22.005-36.122-46.168-71.103-69.208-106.582
		c-8.938-13.764-28.477-23.415-43.786-13.661c-17.049,10.865-18.377,37.822-16.38,55.82c1.895,17.052,7.63,33.427,13.901,49.398
		c11.944,30.412,30.29,72.059,63.364,84.604c34.602,13.126,66.575-20.117,58.37-54.436
		C843.714,1103.108,841.633,1097.992,838.701,1093.173z"/>
	<path style="fill:#1A1A1A;" d="M1128.861,942.051c39.293-8.024,76.92-23.488,108.185-47.137
		c40.063-30.305,81.291-107.659,20.772-140.857c-59.167-32.463-114.282,26.187-129.047,78.597
		c-8.743,31.03-12.161,64.049-14.5,96.818c-18.794,3.001-37.383,4.346-54.653,4.234c-15.469-0.102-31.447-1.417-47.259-4.165
		c-0.075-0.882-0.141-1.764-0.217-2.646c-5.32-60.965-2.139-151.78-70.377-179.917c-57.23-23.596-91.834,26.86-78.582,80.356
		c15.698,63.386,74.682,101.296,135.281,114.713c1.762,21.121,3.362,42.251,4.794,63.396c4.448,65.651,7.259,131.386,8.504,197.154
		c1.831,96.711,0.221,193.481-4.707,290.109c1.079,0.288,2.171,0.551,3.245,0.863l0.784,0.18c1.942,0.366,3.883,0.745,5.832,1.072
		c1.644,0.282,3.306,0.463,4.952,0.726c5.316-102.879,6.846-205.924,4.492-308.891c-1.844-80.672-6.08-161.291-12.736-241.744
		l0.022,0.005c32.078,4.94,66.195,5.013,99.571-0.092c-0.716,11.137-1.383,22.217-2.161,33.125
		c-3.184,44.663-5.145,89.403-5.973,134.168c-0.224,12.151-0.404,24.297-0.456,36.448c-0.48,115.995,7.186,231.858,22.292,346.854
		c4.882-0.882,9.744-1.856,14.587-2.933c-17.013-130.655-24.229-262.435-21.149-394.114c0.599-25.539,1.539-51.074,2.918-76.599
		C1124.712,995.171,1126.59,968.594,1128.861,942.051z M890.284,854.348c-13.693-23.645-23.588-59.678-6.533-84.477
		c22.385-32.55,69.941-5.949,86.453,19.25c17.06,26.031,19.413,58.689,22.399,88.745c1.605,16.155,3.023,32.331,4.434,48.506
		C953.626,916.048,913.192,893.91,890.284,854.348z M1132.276,905.033c3.683-36.536,7.24-76.453,28.195-107.878
		c16.551-24.823,47.915-41.88,78.183-34.568c45.659,11.031,38.336,62.037,17.391,91.712c-27.691,39.23-76.363,61.73-125.8,72.175
		C1130.902,919.327,1131.555,912.175,1132.276,905.033z"/>
	<path style="fill:#847CB9;" d="M1317.957,1658.361c-51.595,35.537-108.309,61.043-170.314,72.005
		c-65.44,11.566-131.527,7.064-195.552-9.817c-32.239-8.502-62.28-21.647-91.768-37.057c-12.95-6.763-25.61-13.969-37.778-22.08
		c-5.186-3.454-10.443-6.933-15.332-10.797c-6.672-5.271-11.676-10.607-15.71-16.327c-18.251,14.792-29.52,37.593-21.654,61.793
		c6.689,20.57,12.867,34.694,30.287,48.463c4.889,3.864,10.146,7.342,15.33,10.801c12.07,8.049,24.631,15.196,37.474,21.92
		l0.307,0.161c29.489,15.406,59.528,28.55,91.766,37.052c64.027,16.882,130.112,21.388,195.552,9.822
		c22.007-3.888,43.332-9.647,64.012-16.999c37.591-13.365,73.021-32.083,106.304-55.011c3.594-2.475,7.238-5.072,10.896-7.737
		c20.882-15.201,42.115-33.403,55.871-54.48c17.018-26.076,29.249-68.375,5.05-91.099
		C1366.405,1622.488,1341.131,1642.395,1317.957,1658.361z"/>
	<path style="fill:#6B67A9;" d="M1314.887,1556.218c-51.596,35.542-108.312,61.047-170.316,72.01
		c-65.44,11.566-131.525,7.059-195.552-9.822c-32.239-8.502-62.278-21.647-91.766-37.052c-12.95-6.767-25.613-13.968-37.781-22.08
		c-5.184-3.459-10.441-6.938-15.33-10.801c-2.752-2.173-5.14-4.375-7.379-6.587c-17.164,14.806-27.44,36.881-19.837,60.263
		c4.124,12.692,8.076,22.923,14.575,32.141c4.034,5.72,9.038,11.055,15.71,16.327c4.889,3.863,10.146,7.342,15.332,10.797
		c12.168,8.112,24.828,15.318,37.778,22.08c29.488,15.41,59.53,28.555,91.768,37.057c64.024,16.882,130.112,21.383,195.552,9.817
		c62.005-10.962,118.719-36.468,170.314-72.005c23.174-15.966,48.448-35.873,64.741-59.386c0.657-0.95,1.398-1.866,2.026-2.831
		c19.118-29.301,32.171-79.04-5.654-98.533C1362.761,1520.788,1337.806,1540.437,1314.887,1556.218z"/>
	<path style="fill:#847CB9;" d="M1261.094,1439.833c-1.571,1.106-9.193,6.328-9.087,6.392c-3.892,2.451-7.829,4.833-11.812,7.133
		c-20.543,11.864-41.983,20.819-63.995,29.486c-1.725,0.682-2.899,1.159-3.707,1.505c-0.609,0.171-1.335,0.375-2.237,0.634
		c-5.644,1.632-11.259,3.328-16.95,4.789c-3.91,1.003-7.859,1.836-11.798,2.714c-4.843,1.077-9.705,2.051-14.587,2.933
		c-3.673,0.663-7.332,1.388-11.026,1.939c-5.82,0.867-11.654,1.598-17.508,2.183c-2.026,0.214-4.058,0.37-6.09,0.536l-0.684,0.025
		c-12.538-0.22-24.923,0.127-37.459-0.765c-10.818-0.77-21.576-2.095-32.285-3.79c-1.646-0.263-3.308-0.444-4.952-0.726
		c-1.949-0.327-3.89-0.707-5.832-1.072l-0.784-0.18c-1.074-0.312-2.166-0.575-3.245-0.863c-4.95-1.334-9.944-2.523-14.87-3.961
		c-12.01-3.508-23.832-7.605-35.44-12.268c-5.807-2.338-11.552-4.809-17.238-7.43c-2.246-1.018-4.468-2.09-6.687-3.162
		c-20.563-12.122-41.508-29.793-64.353-38.855c-7.944-3.152-16.12-5.281-24.589-5.749l-0.1-0.01
		c-38.465-2.071-83.754,36.195-69.925,78.738c5.632,17.32,10.987,30.056,22.909,41.876c2.239,2.212,4.626,4.414,7.379,6.587
		c4.889,3.864,10.146,7.342,15.33,10.801c12.168,8.112,24.83,15.313,37.781,22.08c29.489,15.406,59.528,28.551,91.766,37.052
		c64.027,16.881,130.112,21.388,195.552,9.822c62.005-10.962,118.721-36.468,170.316-72.01
		c22.918-15.781,47.873-35.43,64.182-58.607c0.85-1.208,1.783-2.382,2.585-3.61c19.501-29.88,32.728-81.062-7.951-99.683
		c-16.324-7.479-35.878-2.343-53.42,6.236c-11.481,5.618-22.109,12.692-30.378,18.724
		C1280.366,1426.235,1270.744,1433.032,1261.094,1439.833z"/>
	<path style="fill:#A5A0CF;" d="M1131.991,1584.164c-9.428,1.193-9.547,16.176,0,14.967
		c85.196-10.763,163.196-48.463,224.078-109.125c6.833-6.806-3.749-17.393-10.582-10.582
		C1287.63,1537.071,1213.099,1573.918,1131.991,1584.164z"/>
	<path style="fill:#A5A0CF;" d="M1338.193,1598.011c-54.295,55.386-123.327,91.235-199.77,104.151
		c-9.477,1.599-5.459,16.025,3.978,14.431c78.862-13.325,150.409-50.904,206.375-108
		C1355.523,1601.714,1344.948,1591.122,1338.193,1598.011z"/>
	<path style="fill:#A5A0CF;" d="M1335.038,1689.972c-63.82,56.896-140.777,94.743-224.667,111.074
		c-9.447,1.836-5.447,16.268,3.978,14.431c86.38-16.813,165.61-56.385,231.274-114.923
		C1352.827,1694.133,1342.21,1683.579,1335.038,1689.972z"/>
	<path style="fill:#A5A0CF;" d="M820.398,1508.384c-8.804-21.832-1.586-44.146,19.289-55.576c8.451-4.629,0.906-17.559-7.554-12.926
		c-26.164,14.328-37.389,44.648-26.166,72.482C809.522,1521.187,824.006,1517.334,820.398,1508.384z"/>
	<path style="fill:#A5A0CF;" d="M809.368,1615.005c-5.564-11.625-5.664-24.906-0.2-36.589c4.056-8.677-8.843-16.282-12.924-7.556
		c-7.905,16.906-7.864,34.85,0.2,51.698C800.601,1631.243,813.509,1623.658,809.368,1615.005z"/>
	<path style="fill:#A5A0CF;" d="M806.868,1674.308c4.451-8.526-8.46-16.102-12.926-7.551c-9.537,18.27-7.216,38.879,5.423,54.972
		c5.944,7.571,16.47-3.089,10.582-10.582C801.655,1700.588,800.725,1686.079,806.868,1674.308z"/>
	<path style="fill:#A5A0CF;" d="M971.94,1919.029c-33.123-17.832-57.444-46.602-69.072-82.426c-2.96-9.12-17.418-5.218-14.434,3.981
		c12.797,39.425,39.41,71.698,75.951,91.366C972.866,1936.515,980.432,1923.599,971.94,1919.029z"/>
	<path style="fill:#1A1A1A;" d="M1795.856,1055.468c-53.685-13.379-104.046-34.792-150.935-64.156
		c-8.188-5.13-15.707,7.815-7.554,12.921c47.951,30.031,99.615,51.985,154.511,65.671
		C1801.225,1072.233,1805.213,1057.802,1795.856,1055.468z"/>
	<path style="fill:#1A1A1A;" d="M1828.268,740.39c-49.488,3.264-98.577,9.403-147.351,18.387c-9.459,1.74-5.452,16.171,3.98,14.431
		c47.467-8.74,95.213-14.675,143.371-17.851C1837.829,754.723,1837.9,739.756,1828.268,740.39z"/>
	<path style="fill:#1A1A1A;" d="M1658.136,480.96c34.797-33.389,73.118-62.085,114.918-86.114
		c8.349-4.799,0.819-17.739-7.554-12.926c-42.902,24.668-82.244,54.197-117.947,88.458
		C1640.59,477.058,1651.184,487.635,1658.136,480.96z"/>
	<path style="fill:#1A1A1A;" d="M525.293,1104.915c-39.535,27.489-79.069,54.972-118.604,82.46
		c-7.854,5.462-0.38,18.441,7.554,12.926l118.604-82.465C540.701,1112.379,533.23,1099.4,525.293,1104.915z"/>
	<path style="fill:#1A1A1A;" d="M445.122,862.246c-51.342,15.513-102.687,31.03-154.031,46.548
		c-9.194,2.777-5.276,17.228,3.98,14.431c51.343-15.518,102.687-31.031,154.029-46.548
		C458.296,873.9,454.379,859.449,445.122,862.246z"/>
	<path style="fill:#1A1A1A;" d="M313.378,507.06c-8.368-4.803-15.915,8.127-7.554,12.926
		c51.026,29.286,105.844,49.471,163.729,60.087c9.415,1.73,13.454-12.692,3.978-14.431
		C416.876,555.25,363.354,535.742,313.378,507.06z"/>
	<path style="fill:#1A1A1A;" d="M1570.621,149.896c-32.538,34.587-60.129,72.838-82.563,114.699
		c-4.548,8.487,8.368,16.059,12.926,7.557c21.832-40.745,48.541-78.003,80.219-111.673
		C1587.8,153.467,1577.238,142.86,1570.621,149.896z"/>
	<path style="fill:#1A1A1A;" d="M576.289,327.246c7.696,5.798,15.162-7.192,7.554-12.921
		c-37.992-28.624-72.499-61.091-103.642-97.028c-6.319-7.293-16.865,3.332-10.582,10.582
		C501.634,264.824,537.251,297.842,576.289,327.246z"/>
</g>
</svg>
