<?xml version="1.0" encoding="utf-8"?>
<!-- Generator: Adobe Illustrator 27.5.0, SVG Export Plug-In . SVG Version: 6.00 Build 0)  -->
<svg version="1.1" id="Layer_1" xmlns="http://www.w3.org/2000/svg" xmlns:xlink="http://www.w3.org/1999/xlink" x="0px" y="0px"
	 viewBox="0 0 270.001 234.226" style="enable-background:new 0 0 270.001 234.226;" xml:space="preserve">
<g>
	<g>
		<path style="fill:#FFFFFF;" d="M47.881,112.415l7.1,46.879c-1.03,0.041-2.039,0.061-3.019,0.061
			c-12.107,0-16.099-2.968-17.028-3.874c-2.347-2.289-3.447-5.011-3.466-8.564C31.407,135.935,40.387,122.065,47.881,112.415z
			 M225.342,14.107c-21.246-3.485-50.071-5.484-79.084-5.484s-57.837,1.999-79.082,5.484c-27.705,4.545-40.608,11.06-40.608,20.503
			c0,0.136,0.006,0.27,0.016,0.401c0.052,1.289,0.351,2.55,0.892,3.758l5.076,18.413c0.602,5.187,5.241,8.421,8.504,10.161
			l2.345,15.484c-0.092,0.086-0.184,0.172-0.273,0.26c-3.547,3.538-34.653,35.385-34.512,63.937
			c0.05,9.813,3.537,18.164,10.367,24.821c7.072,6.892,18.059,10.385,32.653,10.385c2.177,0,4.455-0.077,6.784-0.229l4.487,29.625
			c0.541,7.675,10.361,12.53,31.736,15.717c14.152,2.109,33.447,3.369,51.615,3.369c18.173,0,37.471-1.26,51.622-3.369
			c21.389-3.189,31.206-8.051,31.733-15.735l21.181-143.906c3.5-1.769,8.546-5.099,9.177-10.517l5.076-18.424
			c0.539-1.207,0.838-2.468,0.888-3.759c0.011-0.133,0.016-0.266,0.016-0.392C265.95,25.167,253.047,18.652,225.342,14.107z"/>
		<path style="fill:#F1F1F1;" d="M47.465,111.951l7.101,46.877c-1.029,0.042-2.038,0.062-3.017,0.062
			c-12.108,0-16.1-2.967-17.029-3.872c-2.347-2.29-3.447-5.011-3.466-8.565C30.992,135.471,39.972,121.601,47.465,111.951z
			 M224.926,13.642c-21.245-3.484-50.07-5.482-79.084-5.482c-29.012,0-57.836,1.998-79.081,5.482
			c-27.705,4.546-40.608,11.061-40.608,20.505c0,0.136,0.005,0.269,0.015,0.399c0.052,1.291,0.352,2.552,0.893,3.759l5.076,18.413
			c0.602,5.188,5.241,8.421,8.504,10.16l2.345,15.485c-0.093,0.085-0.184,0.172-0.274,0.26
			c-3.573,3.513-34.654,35.385-34.512,63.937c0.05,9.813,3.536,18.164,10.367,24.821c7.071,6.892,18.059,10.386,32.653,10.386
			c2.176,0,4.455-0.079,6.784-0.23l4.486,29.625c0.542,7.675,10.362,12.53,31.737,15.716c14.152,2.11,33.448,3.37,51.614,3.37
			c18.173,0,37.473-1.26,51.623-3.37c21.388-3.189,31.206-8.051,31.732-15.734L250.38,67.236c3.499-1.767,8.545-5.099,9.176-10.517
			l5.076-18.424c0.538-1.207,0.838-2.468,0.888-3.759c0.011-0.133,0.016-0.265,0.016-0.391
			C265.535,24.702,252.632,18.188,224.926,13.642z"/>
		<path style="fill:#E2E2E2;" d="M47.051,111.486l7.099,46.878c-1.028,0.042-2.037,0.061-3.017,0.061
			c-12.108,0-16.099-2.968-17.03-3.873c-2.346-2.29-3.446-5.012-3.465-8.565C30.578,135.006,39.557,121.137,47.051,111.486z
			 M224.511,13.178c-21.244-3.484-50.069-5.483-79.083-5.483c-29.014,0-57.837,1.999-79.082,5.483
			C38.64,17.723,25.737,24.238,25.737,33.682c0,0.136,0.006,0.268,0.016,0.4c0.052,1.289,0.351,2.55,0.892,3.758l5.076,18.414
			c0.602,5.187,5.242,8.42,8.503,10.16l2.346,15.485c-0.092,0.085-0.184,0.171-0.272,0.26c-3.555,3.53-34.654,35.385-34.512,63.937
			c0.048,9.813,3.537,18.164,10.366,24.821c7.072,6.891,18.059,10.385,32.653,10.385c2.177,0,4.455-0.078,6.783-0.23l4.488,29.625
			c0.541,7.675,10.36,12.53,31.736,15.716c14.152,2.109,33.448,3.369,51.615,3.369c18.173,0,37.471-1.26,51.622-3.369
			c21.389-3.189,31.206-8.051,31.733-15.735l21.182-143.905c3.498-1.769,8.545-5.1,9.176-10.517l5.075-18.425
			c0.54-1.206,0.839-2.467,0.889-3.758c0.011-0.133,0.017-0.266,0.017-0.392C265.121,24.238,252.217,17.723,224.511,13.178z"/>
		<path style="fill:#D4D4D4;" d="M46.635,111.021l7.1,46.88c-1.029,0.041-2.038,0.061-3.018,0.061
			c-12.108,0-16.099-2.968-17.029-3.873c-2.346-2.29-3.446-5.012-3.465-8.564C30.162,134.541,39.142,120.671,46.635,111.021z
			 M224.096,12.713c-21.244-3.484-50.07-5.482-79.083-5.482c-29.014,0-57.837,1.998-79.083,5.482
			c-27.704,4.545-40.608,11.061-40.608,20.504c0,0.135,0.006,0.27,0.018,0.4c0.051,1.29,0.35,2.55,0.89,3.758l5.078,18.414
			c0.601,5.187,5.24,8.421,8.502,10.16l2.345,15.484c-0.092,0.086-0.183,0.172-0.272,0.261
			c-3.548,3.537-34.654,35.385-34.512,63.937c0.049,9.813,3.537,18.163,10.366,24.82c7.072,6.893,18.059,10.385,32.654,10.385
			c2.176,0,4.454-0.077,6.783-0.229l4.487,29.626c0.541,7.674,10.361,12.53,31.736,15.716c14.152,2.109,33.448,3.37,51.616,3.37
			c18.172,0,37.471-1.261,51.622-3.37c21.389-3.189,31.206-8.05,31.733-15.734l21.181-143.906c3.499-1.768,8.545-5.099,9.177-10.517
			l5.076-18.425c0.538-1.207,0.837-2.468,0.888-3.759c0.01-0.133,0.016-0.265,0.016-0.391
			C264.705,23.774,251.802,17.258,224.096,12.713z"/>
		<path style="fill:#C5C5C5;" d="M46.22,110.557l7.101,46.879c-1.029,0.041-2.038,0.062-3.018,0.062
			c-12.108,0-16.1-2.968-17.03-3.874c-2.345-2.289-3.446-5.011-3.465-8.565C29.747,134.076,38.728,120.207,46.22,110.557z
			 M223.682,12.249c-21.246-3.485-50.07-5.484-79.083-5.484s-57.838,1.999-79.083,5.484c-27.704,4.545-40.608,11.06-40.608,20.503
			c0,0.136,0.005,0.27,0.017,0.401c0.051,1.289,0.351,2.55,0.892,3.758l5.076,18.413c0.602,5.187,5.241,8.421,8.503,10.161
			l2.345,15.484c-0.093,0.086-0.184,0.172-0.272,0.26c-3.555,3.53-34.655,35.385-34.512,63.937
			c0.048,9.813,3.536,18.164,10.367,24.821c7.072,6.892,18.059,10.385,32.652,10.385c2.177,0,4.455-0.076,6.785-0.23l4.485,29.626
			c0.542,7.675,10.361,12.53,31.737,15.716c14.152,2.11,33.448,3.37,51.616,3.37c18.172,0,37.471-1.26,51.621-3.37
			c21.389-3.189,31.207-8.051,31.734-15.734l21.181-143.906c3.498-1.769,8.545-5.099,9.176-10.517l5.076-18.424
			c0.54-1.207,0.837-2.468,0.889-3.759c0.01-0.133,0.016-0.266,0.016-0.392C264.291,23.309,251.387,16.794,223.682,12.249z"/>
		<path style="fill:#B7B7B7;" d="M45.806,110.093l7.101,46.878c-1.03,0.042-2.039,0.061-3.019,0.061
			c-12.107,0-16.1-2.968-17.029-3.873c-2.346-2.29-3.446-5.01-3.466-8.565C29.333,133.612,38.313,119.742,45.806,110.093z
			 M223.266,11.784c-21.244-3.484-50.069-5.483-79.082-5.483c-29.014,0-57.837,1.999-79.083,5.483
			c-27.705,4.545-40.608,11.061-40.608,20.504c0,0.136,0.006,0.269,0.017,0.4c0.051,1.289,0.351,2.55,0.892,3.759l5.076,18.413
			c0.601,5.187,5.24,8.42,8.503,10.16l2.345,15.485c-0.092,0.085-0.183,0.171-0.272,0.26C37.488,84.287,6.398,116.15,6.54,144.702
			c0.049,9.813,3.537,18.164,10.367,24.821c7.072,6.891,18.059,10.386,32.653,10.386c2.177,0,4.453-0.079,6.784-0.231l4.487,29.626
			c0.54,7.675,10.36,12.53,31.735,15.716c14.152,2.109,33.448,3.369,51.616,3.369c18.172,0,37.471-1.26,51.622-3.369
			c21.389-3.189,31.206-8.051,31.732-15.735L248.72,65.379c3.499-1.768,8.546-5.1,9.177-10.517l5.076-18.425
			c0.539-1.206,0.836-2.467,0.888-3.758c0.01-0.133,0.016-0.266,0.016-0.392C263.876,22.845,250.972,16.329,223.266,11.784z"/>
		<path style="fill:#A8A8A8;" d="M45.391,109.628l7.101,46.878c-1.031,0.042-2.039,0.061-3.019,0.061
			c-12.107,0-16.1-2.968-17.029-3.873c-2.347-2.289-3.446-5.012-3.466-8.565C28.917,133.148,37.897,119.277,45.391,109.628z
			 M222.851,11.32c-21.245-3.486-50.07-5.484-79.083-5.484S85.932,7.834,64.687,11.32C36.98,15.865,24.077,22.38,24.077,31.823
			c0,0.135,0.005,0.269,0.017,0.401c0.051,1.288,0.351,2.55,0.891,3.757l5.077,18.415c0.601,5.186,5.24,8.419,8.503,10.16
			l2.345,15.484c-0.093,0.085-0.184,0.171-0.272,0.259c-3.548,3.538-34.654,35.387-34.513,63.937
			c0.05,9.814,3.537,18.165,10.367,24.822c7.072,6.891,18.059,10.385,32.653,10.385c2.178,0,4.455-0.078,6.785-0.23l4.486,29.626
			c0.542,7.674,10.361,12.53,31.737,15.717c14.151,2.108,33.447,3.368,51.614,3.368c18.172,0,37.472-1.26,51.622-3.368
			c21.39-3.19,31.206-8.052,31.733-15.736l21.181-143.905c3.499-1.769,8.547-5.1,9.177-10.516l5.076-18.425
			c0.54-1.207,0.837-2.469,0.889-3.759c0.009-0.134,0.015-0.265,0.015-0.392C263.46,22.38,250.557,15.865,222.851,11.32z"/>
		<path style="fill:#9A9A9A;" d="M44.976,109.163l7.101,46.879c-1.031,0.041-2.039,0.061-3.019,0.061
			c-12.107,0-16.1-2.968-17.029-3.874c-2.347-2.289-3.447-5.011-3.465-8.564C28.502,132.683,37.482,118.813,44.976,109.163z
			 M222.436,10.856c-21.246-3.485-50.071-5.484-79.084-5.484S85.516,7.37,64.271,10.856C36.565,15.4,23.662,21.915,23.662,31.358
			c0,0.136,0.006,0.269,0.017,0.401c0.051,1.289,0.351,2.55,0.891,3.758l5.077,18.413c0.601,5.187,5.24,8.421,8.503,10.161
			l2.345,15.484c-0.092,0.086-0.183,0.171-0.272,0.26c-3.548,3.537-34.654,35.385-34.513,63.937
			c0.05,9.813,3.537,18.164,10.367,24.821c7.072,6.892,18.059,10.385,32.653,10.385c2.177,0,4.455-0.077,6.785-0.23l4.486,29.625
			c0.541,7.675,10.361,12.53,31.737,15.717c14.151,2.109,33.447,3.369,51.614,3.369c18.173,0,37.472-1.26,51.622-3.369
			c21.39-3.189,31.206-8.052,31.733-15.735l21.181-143.906c3.5-1.769,8.547-5.099,9.177-10.517l5.076-18.424
			c0.539-1.207,0.838-2.468,0.888-3.759c0.011-0.133,0.016-0.266,0.016-0.392C263.045,21.915,250.142,15.4,222.436,10.856z"/>
		<path style="fill:#8B8B8B;" d="M44.561,108.699l7.1,46.877c-1.03,0.042-2.039,0.061-3.018,0.061
			c-12.108,0-16.1-2.967-17.029-3.873c-2.347-2.289-3.447-5.011-3.466-8.565C28.088,132.218,37.066,118.348,44.561,108.699z
			 M222.021,10.39c-21.245-3.484-50.071-5.483-79.084-5.483S85.101,6.905,63.855,10.39C36.15,14.935,23.247,21.45,23.247,30.894
			c0,0.136,0.006,0.269,0.016,0.4c0.053,1.291,0.351,2.551,0.892,3.758l5.076,18.414c0.602,5.187,5.241,8.422,8.504,10.16
			l2.345,15.485c-0.092,0.085-0.183,0.172-0.273,0.261c-3.547,3.537-34.653,35.384-34.512,63.936
			c0.05,9.812,3.537,18.163,10.367,24.82c7.072,6.892,18.059,10.385,32.653,10.385c2.178,0,4.455-0.078,6.785-0.23l4.486,29.627
			c0.541,7.675,10.361,12.53,31.736,15.715c14.152,2.11,33.448,3.37,51.615,3.37c18.173,0,37.473-1.26,51.622-3.37
			c21.389-3.189,31.206-8.051,31.733-15.733l21.182-143.907c3.499-1.769,8.545-5.098,9.176-10.517l5.076-18.424
			c0.54-1.207,0.838-2.468,0.888-3.759c0.011-0.133,0.017-0.266,0.017-0.392C262.631,21.45,249.727,14.935,222.021,10.39z"/>
		<path style="fill:#7D7D7D;" d="M44.146,108.234l7.1,46.877c-1.029,0.042-2.037,0.063-3.017,0.063
			c-12.108,0-16.099-2.968-17.03-3.873c-2.347-2.29-3.447-5.012-3.466-8.565C27.673,131.754,36.651,117.884,44.146,108.234z
			 M221.606,9.926c-21.245-3.484-50.07-5.483-79.084-5.483c-29.013,0-57.837,1.999-79.081,5.483
			c-27.706,4.545-40.609,11.06-40.609,20.504c0,0.135,0.006,0.268,0.017,0.4c0.051,1.289,0.351,2.55,0.891,3.758l5.077,18.414
			c0.601,5.187,5.241,8.419,8.503,10.16l2.345,15.485c-0.092,0.085-0.183,0.171-0.271,0.259
			c-3.566,3.521-34.655,35.386-34.513,63.937c0.049,9.813,3.537,18.164,10.366,24.822c7.072,6.89,18.059,10.385,32.653,10.385
			c2.178,0,4.455-0.078,6.784-0.23l4.487,29.626c0.541,7.675,10.361,12.53,31.737,15.716c14.151,2.109,33.448,3.368,51.614,3.368
			c18.173,0,37.472-1.259,51.623-3.368c21.388-3.19,31.205-8.052,31.733-15.736L247.06,63.521c3.499-1.769,8.546-5.101,9.176-10.517
			l5.076-18.425c0.54-1.206,0.838-2.467,0.888-3.759c0.011-0.133,0.017-0.265,0.017-0.391
			C262.216,20.986,249.311,14.471,221.606,9.926z"/>
		<path style="fill:#6E6E6E;" d="M43.73,107.77l7.1,46.878c-1.029,0.041-2.038,0.061-3.018,0.061
			c-12.108,0-16.099-2.967-17.029-3.873c-2.346-2.29-3.446-5.011-3.466-8.564C27.258,131.29,36.236,117.42,43.73,107.77z
			 M221.191,9.461c-21.245-3.485-50.069-5.483-79.083-5.483S84.271,5.976,63.025,9.461c-27.705,4.545-40.608,11.06-40.608,20.504
			c0,0.136,0.006,0.269,0.017,0.4c0.051,1.29,0.351,2.551,0.892,3.759l5.076,18.413c0.601,5.186,5.241,8.42,8.503,10.16
			l2.345,15.484c-0.092,0.086-0.184,0.172-0.272,0.26c-3.574,3.513-34.654,35.386-34.511,63.937
			c0.048,9.814,3.536,18.164,10.365,24.821c7.072,6.892,18.059,10.386,32.653,10.386c2.177,0,4.455-0.078,6.784-0.23l4.487,29.625
			c0.541,7.674,10.361,12.53,31.736,15.716c14.152,2.11,33.448,3.369,51.616,3.369c18.172,0,37.471-1.259,51.622-3.369
			c21.388-3.189,31.205-8.051,31.733-15.735l21.182-143.905c3.498-1.768,8.544-5.1,9.175-10.517l5.076-18.425
			c0.539-1.207,0.838-2.468,0.889-3.759c0.011-0.132,0.016-0.265,0.016-0.391C261.801,20.521,248.898,14.006,221.191,9.461z"/>
		<path style="fill:#606060;" d="M43.315,107.305l7.1,46.878c-1.029,0.042-2.038,0.063-3.018,0.063
			c-12.108,0-16.099-2.968-17.029-3.874c-2.346-2.289-3.446-5.011-3.466-8.565C26.843,130.824,35.822,116.955,43.315,107.305z
			 M220.776,8.997c-21.245-3.485-50.07-5.484-79.083-5.484S83.855,5.512,62.61,8.997C34.906,13.542,22.002,20.057,22.002,29.5
			c0,0.136,0.006,0.27,0.017,0.401c0.051,1.289,0.351,2.55,0.892,3.758l5.076,18.413c0.602,5.187,5.241,8.421,8.503,10.161
			l2.345,15.484c-0.092,0.085-0.183,0.172-0.272,0.26c-3.548,3.538-34.654,35.385-34.512,63.936
			c0.049,9.813,3.537,18.164,10.367,24.821c7.072,6.892,18.059,10.385,32.652,10.385c2.177,0,4.455-0.077,6.785-0.23l4.486,29.626
			c0.541,7.675,10.361,12.53,31.736,15.716c14.152,2.11,33.448,3.37,51.616,3.37c18.172,0,37.471-1.26,51.622-3.37
			c21.388-3.189,31.206-8.051,31.733-15.734L246.23,62.591c3.499-1.769,8.545-5.099,9.176-10.517l5.077-18.424
			c0.539-1.207,0.837-2.468,0.888-3.759c0.01-0.133,0.016-0.266,0.016-0.392C261.386,20.057,248.482,13.542,220.776,8.997z"/>
	</g>
	<path style="fill:#FFFFFF;" d="M220.776,8.997c-21.245-3.485-50.07-5.484-79.083-5.484S83.855,5.512,62.61,8.997
		C34.906,13.542,22.002,20.057,22.002,29.5c0,0.136,0.006,0.27,0.017,0.401c0.051,1.289,0.351,2.55,0.892,3.758l5.076,18.413
		c0.602,5.187,5.241,8.421,8.503,10.161l2.345,15.484c-0.092,0.085-0.183,0.172-0.272,0.26
		c-3.548,3.538-34.654,35.385-34.512,63.936c0.049,9.813,3.537,18.164,10.367,24.821c7.072,6.892,18.059,10.385,32.652,10.385
		c2.177,0,4.455-0.077,6.785-0.23l4.486,29.626c0.541,7.675,10.361,12.53,31.736,15.716c14.152,2.11,33.448,3.37,51.616,3.37
		c18.172,0,37.471-1.26,51.622-3.37c21.388-3.189,31.206-8.051,31.733-15.734L246.23,62.591c3.499-1.769,8.545-5.099,9.176-10.517
		l5.077-18.424c0.539-1.207,0.837-2.468,0.888-3.759c0.01-0.133,0.016-0.266,0.016-0.392
		C261.386,20.057,248.482,13.542,220.776,8.997z M43.315,107.305l7.1,46.878c-1.029,0.042-2.038,0.063-3.018,0.063
		c-12.108,0-16.099-2.968-17.029-3.874c-2.346-2.289-3.446-5.011-3.466-8.565C26.843,130.824,35.822,116.955,43.315,107.305z"/>
	<g>
		<g>
			<path style="fill:#ED1B36;" d="M41.287,50.819l23.481,155.058c0,7.328,34.438,13.275,76.925,13.275
				c42.484,0,76.927-5.947,76.927-13.275l22.821-155.058H41.287z"/>
			<path style="fill:#5E2C00;" d="M141.693,220.751c-31.431,0-78.131-3.931-78.523-14.735L39.703,51.06
				c-0.072-0.462,0.068-0.93,0.368-1.284c0.304-0.352,0.747-0.557,1.216-0.557h200.154c0.467,0,0.908,0.2,1.213,0.555
				c0.305,0.351,0.439,0.814,0.371,1.277L220.218,206.01C219.835,216.82,173.129,220.751,141.693,220.751z M43.144,52.418
				l23.207,153.223c0.01,0.077,0.015,0.157,0.015,0.236c0,4.873,28.658,11.675,75.328,11.675c46.67,0,75.326-6.802,75.326-11.675
				c0-0.075,0.008-0.155,0.02-0.234l22.55-153.225H43.144z"/>
		</g>
		<path style="opacity:0.6;fill:#FEEEC6;" d="M60.84,49.042H48.438l23.484,155.061c0,2.3,3.38,4.455,9.329,6.343
			C74.664,156.614,65.268,103.095,60.84,49.042z"/>
		<path style="fill:#ED1B36;" d="M186.706,50.819c-2.587,33.235-6.175,66.407-7.505,99.723c-0.409,10.215-0.401,20.429-0.773,30.635
			c-0.323,8.965-0.581,18.345-3.806,26.826c-1.567,4.113-4.504,7.733-8.144,10.437c30.32-1.776,52.142-6.729,52.142-12.563
			l22.821-155.058H186.706z"/>
		<g>
			<path style="fill:#ED1B36;" d="M28.45,29.5l5.916,21.465c0,10.228,48.055,18.521,107.327,18.521
				c59.276,0,107.325-8.294,107.325-18.521l5.916-21.465H28.45z"/>
			<path style="fill:#5E2C00;" d="M141.693,71.085c-52.481,0-108.238-6.968-108.915-19.879l-5.867-21.281
				c-0.135-0.481-0.032-0.997,0.271-1.395c0.303-0.395,0.773-0.631,1.269-0.631h226.484c0.5,0,0.972,0.236,1.275,0.631
				c0.299,0.397,0.4,0.913,0.268,1.395l-5.863,21.281C249.934,64.117,194.176,71.085,141.693,71.085z M30.554,31.103l5.356,19.438
				c0.038,0.133,0.058,0.278,0.058,0.424c0,6.912,37.649,16.919,105.726,16.919c68.08,0,105.725-10.007,105.725-16.919
				c0-0.146,0.021-0.291,0.059-0.424l5.358-19.438H30.554z"/>
		</g>
		<g>
			<path style="fill:#ED1B36;" d="M28.45,29.5l5.916,21.465c0,10.228,48.055,18.521,107.327,18.521
				c59.276,0,107.325-8.294,107.325-18.521l5.916-21.465H28.45z"/>
			<path style="fill:#5E2C00;" d="M141.693,71.085c-52.481,0-108.238-6.968-108.915-19.879l-5.867-21.281
				c-0.135-0.481-0.032-0.997,0.271-1.395c0.303-0.395,0.773-0.631,1.269-0.631h226.484c0.5,0,0.972,0.236,1.275,0.631
				c0.299,0.397,0.4,0.913,0.268,1.395l-5.863,21.281C249.934,64.117,194.176,71.085,141.693,71.085z M30.554,31.103l5.356,19.438
				c0.038,0.133,0.058,0.278,0.058,0.424c0,6.912,37.649,16.919,105.726,16.919c68.08,0,105.725-10.007,105.725-16.919
				c0-0.146,0.021-0.291,0.059-0.424l5.358-19.438H30.554z"/>
		</g>
		<g>
			<path style="fill:#ED1B36;" d="M28.45,29.5l5.916,21.465c0,10.228,48.055,18.521,107.327,18.521
				c59.276,0,107.325-8.294,107.325-18.521l5.916-21.465H28.45z"/>
			<path style="fill:#5E2C00;" d="M141.693,71.085c-52.481,0-108.238-6.968-108.915-19.879l-5.867-21.281
				c-0.135-0.481-0.032-0.997,0.271-1.395c0.303-0.395,0.773-0.631,1.269-0.631h226.484c0.5,0,0.972,0.236,1.275,0.631
				c0.299,0.397,0.4,0.913,0.268,1.395l-5.863,21.281C249.934,64.117,194.176,71.085,141.693,71.085z M30.554,31.103l5.356,19.438
				c0.038,0.133,0.058,0.278,0.058,0.424c0,6.912,37.649,16.919,105.726,16.919c68.08,0,105.725-10.007,105.725-16.919
				c0-0.146,0.021-0.291,0.059-0.424l5.358-19.438H30.554z"/>
		</g>
		<path style="opacity:0.6;fill:#FEEEC6;" d="M149.759,43.336c-20.99-0.335-41.783-1.391-62.666-3.567
			c-10.313-1.066-20.615-2.233-30.957-2.948c-7.585-0.522-15.04-1.195-22.321-3.152l0.552,1.991
			c0,10.227,48.055,18.52,107.327,18.52c49.256,0,94.703-7.895,107.329-15.7C217.35,41.151,181.53,43.846,149.759,43.336z"/>
		<g>
			<g>
				<path style="fill:#ED1B36;" d="M236.594,40.161c11.586-3.065,18.341-6.727,18.341-10.661c0-10.791-50.699-19.54-113.241-19.54
					C79.154,9.96,28.45,18.709,28.45,29.5c0,3.934,6.757,7.596,18.344,10.661c20.206-5.349,55.147-8.886,94.9-8.886
					C181.446,31.275,216.391,34.813,236.594,40.161z"/>
				<path style="fill:#5E2C00;" d="M236.594,41.758c-0.139,0-0.276-0.019-0.41-0.053c-20.894-5.526-56.217-8.833-94.49-8.833
					c-38.272,0-73.597,3.307-94.492,8.833c-0.265,0.071-0.549,0.073-0.816,0C33.242,38.232,26.853,34.236,26.853,29.5
					c0-13.729,59.169-21.137,114.841-21.137c55.673,0,114.843,7.407,114.843,21.137c0,4.736-6.39,8.732-19.533,12.205
					C236.869,41.741,236.732,41.758,236.594,41.758z M141.693,29.675c38.285,0,73.701,3.296,94.897,8.832
					c15.527-4.166,16.743-7.942,16.743-9.007c0-8.483-45.851-17.939-111.641-17.939c-65.792,0-111.642,9.456-111.642,17.939
					c0,1.065,1.22,4.841,16.747,9.007C67.991,32.971,103.41,29.675,141.693,29.675z"/>
			</g>
			<path style="fill:#ED1B36;" d="M70.006,14.376C44.645,17.961,28.45,23.403,28.45,29.5c0,3.934,6.757,7.596,18.344,10.661
				c6.567-1.739,14.721-3.283,24.063-4.579C70.786,28.502,70.538,21.426,70.006,14.376z"/>
			<path style="fill:#ED1B36;" d="M204.408,13.233c-0.571,7.1-1.423,14.198-1.825,21.111c13.592,1.498,25.203,3.485,34.011,5.816
				c11.586-3.065,18.341-6.727,18.341-10.661C254.935,22.71,234.864,16.734,204.408,13.233z"/>
			<g>
				<path style="fill:#ED1B36;" d="M236.594,40.161c-20.203-5.349-55.147-8.886-94.9-8.886c-39.752,0-74.693,3.537-94.9,8.886
					c20.206,5.344,55.147,8.881,94.9,8.881C181.446,49.042,216.391,45.505,236.594,40.161z"/>
				<path style="fill:#5E2C00;" d="M141.693,50.644c-38.529,0-74.158-3.341-95.309-8.938c-0.705-0.188-1.191-0.816-1.191-1.544
					c0-0.727,0.486-1.36,1.191-1.546c21.147-5.601,56.777-8.94,95.309-8.94c38.532,0,74.163,3.34,95.309,8.94
					c0.702,0.186,1.191,0.82,1.191,1.546c0,0.722-0.488,1.357-1.191,1.544C215.852,47.303,180.222,50.644,141.693,50.644z
					 M53.687,40.161c21.302,4.592,53.453,7.284,88.007,7.284s66.707-2.692,88.01-7.284c-21.299-4.593-53.453-7.289-88.01-7.289
					C107.14,32.872,74.984,35.568,53.687,40.161z"/>
			</g>
			<path style="fill:#ED1B36;" d="M236.594,40.161c-20.203-5.349-55.147-8.886-94.9-8.886c-39.752,0-74.693,3.537-94.9,8.886
				c20.206,5.344,55.147,8.881,94.9,8.881C181.446,49.042,216.391,45.505,236.594,40.161z"/>
		</g>
		<g>
			<path style="fill:#39B54A;" d="M207.064,95.611c0,7.45-6.035,13.483-13.479,13.483c-7.446,0-13.48-6.033-13.48-13.483
				c0-7.445,6.034-13.478,13.48-13.478C201.028,82.134,207.064,88.166,207.064,95.611z"/>
			<path style="fill:#5E2C00;" d="M193.585,110.696c-8.316,0-15.081-6.769-15.081-15.085c0-8.311,6.766-15.078,15.081-15.078
				c8.313,0,15.079,6.768,15.079,15.078C208.664,103.927,201.898,110.696,193.585,110.696z M193.585,83.731
				c-6.553,0-11.881,5.329-11.881,11.88c0,6.554,5.328,11.883,11.881,11.883c6.55,0,11.88-5.329,11.88-11.883
				C205.465,89.061,200.135,83.731,193.585,83.731z"/>
		</g>
		<g>
			<path style="fill:#7C99CF;" d="M196.597,91.648c-2.188-1.658-5.311-1.229-6.976,0.955
				c-26.181,34.465-94.548,64.773-135.89,67.853c-13.329,0.983-23.23-0.949-27.866-5.47c-3.613-3.523-5.386-7.818-5.415-13.145
				c-0.093-17.839,18.735-40.338,26.444-48.797c-0.741-3.852-1.554-7.679-2.082-11.557c-0.613,0.232-1.197,0.566-1.697,1.061
				c-1.338,1.332-32.747,32.859-32.616,59.335c0.04,8.018,2.872,14.826,8.419,20.231c5.835,5.688,15.286,8.554,28.151,8.554
				c2.353,0,4.823-0.095,7.4-0.288c44.315-3.296,114.916-34.683,143.076-71.755C199.21,96.438,198.783,93.308,196.597,91.648z"/>
			<path style="fill:#5E2C00;" d="M47.069,172.27c-13.285,0-23.134-3.031-29.269-9.009c-5.865-5.718-8.858-12.905-8.901-21.372
				c-0.135-27.12,31.732-59.127,33.086-60.478c0.62-0.61,1.359-1.08,2.263-1.417c0.456-0.18,0.964-0.133,1.387,0.121
				c0.415,0.25,0.7,0.677,0.767,1.156c0.41,3.033,1.013,6.111,1.601,9.088l0.461,2.383c0.096,0.495-0.046,1.006-0.387,1.378
				c-7.857,8.625-26.116,30.538-26.023,47.712c0.025,4.874,1.638,8.798,4.929,12.009c4.224,4.111,13.959,5.945,26.634,5.017
				c41.008-3.052,108.798-33.082,134.731-67.224c1.259-1.649,3.169-2.597,5.245-2.597c1.443,0,2.816,0.462,3.971,1.339
				c2.886,2.188,3.453,6.326,1.258,9.217c-28.41,37.4-99.578,69.06-144.23,72.383C51.992,172.172,49.464,172.27,47.069,172.27z
				 M43.623,84.309c-4.603,4.714-31.644,33.454-31.524,57.563c0.039,7.576,2.706,14.001,7.936,19.096
				c5.517,5.376,14.614,8.104,27.035,8.104c2.313,0,4.764-0.099,7.281-0.284c43.973-3.275,114.012-34.39,141.924-71.134
				c1.124-1.483,0.835-3.605-0.647-4.729c-1.443-1.098-3.64-0.79-4.734,0.646c-26.424,34.787-95.366,65.377-137.043,68.479
				c-13.805,1.014-24.133-1.076-29.103-5.918c-3.937-3.839-5.862-8.509-5.895-14.285c-0.093-17.905,17.943-40.003,26.314-49.286
				l-0.307-1.584C44.432,88.795,43.994,86.56,43.623,84.309z"/>
		</g>
	</g>
</g>
</svg>
